<?xml version="1.0" standalone="no"?>
<!DOCTYPE svg PUBLIC "-//W3C//DTD SVG 20010904//EN"
 "http://www.w3.org/TR/2001/REC-SVG-20010904/DTD/svg10.dtd">
<svg version="1.0" xmlns="http://www.w3.org/2000/svg"
 width="322.000000pt" height="120.000000pt" viewBox="0 0 322.000000 120.000000"
 preserveAspectRatio="xMidYMid meet">

<g transform="translate(0.000000,120.000000) scale(0.100000,-0.100000)"
fill="#000000" stroke="none">
<path d="M440 595 l0 -445 375 0 375 0 0 445 0 445 -375 0 -375 0 0 -445z
m514 213 c-17 -30 -116 -175 -135 -200 l-22 -26 75 -114 c70 -105 98 -151 98
-160 0 -2 -15 -2 -34 0 -30 4 -39 13 -90 95 -32 51 -65 103 -76 117 -18 24
-19 24 -39 6 -17 -16 -21 -31 -21 -88 0 -37 -2 -68 -5 -68 -2 0 -16 5 -30 12
l-25 11 1 136 c2 167 7 195 36 199 21 3 22 -1 25 -82 l3 -85 51 62 c28 34 67
88 88 119 21 33 48 61 64 67 37 13 44 13 36 -1z"/>
<path d="M1395 733 c-18 -3 -24 -21 -43 -126 -12 -67 -28 -155 -36 -194 l-14
-73 39 0 c43 0 43 -1 59 81 l11 56 53 6 c100 10 156 61 156 142 0 49 -22 83
-66 101 -31 13 -112 17 -159 7z m133 -75 c18 -18 14 -52 -9 -82 -15 -20 -29
-26 -58 -26 l-37 0 10 60 10 60 36 0 c20 0 41 -5 48 -12z"/>
<path d="M1790 727 c-52 -17 -106 -77 -124 -138 -21 -69 -20 -115 4 -167 15
-34 29 -47 66 -64 132 -58 267 38 281 199 11 136 -91 213 -227 170z m115 -82
c44 -43 28 -164 -28 -211 -63 -53 -137 -14 -137 73 1 125 98 206 165 138z"/>
<path d="M2153 721 c-66 -31 -92 -103 -57 -156 9 -14 38 -38 65 -55 55 -34 66
-70 28 -91 -20 -10 -76 -7 -112 7 -11 4 -21 -5 -32 -26 l-16 -31 35 -14 c81
-34 189 -5 219 58 27 56 22 85 -21 126 -21 20 -51 44 -65 54 -59 39 -12 91 63
70 38 -10 39 -9 50 20 14 40 3 49 -62 54 -38 3 -65 -2 -95 -16z"/>
</g>
</svg>
